<?xml version="1.0" standalone="no"?>
<!DOCTYPE svg PUBLIC "-//W3C//DTD SVG 20010904//EN"
 "http://www.w3.org/TR/2001/REC-SVG-20010904/DTD/svg10.dtd">
<svg version="1.0" xmlns="http://www.w3.org/2000/svg"
 width="5000.000000pt" height="5000.000000pt" viewBox="0 0 5000.000000 5000.000000"
 preserveAspectRatio="xMidYMid meet">

<g transform="translate(0.000000,5000.000000) scale(0.100000,-0.100000)"
fill="#000000" stroke="none">
<path d="M12642 36443 c-1456 -2560 -2727 -5109 -3379 -6773 -434 -1108 -649
-1891 -670 -2440 -25 -688 179 -1501 536 -2125 573 -1002 1507 -1718 2609
-2001 1115 -286 2307 -99 3275 514 1070 676 1776 1794 1926 3047 43 354 40
624 -10 935 -205 1285 -1222 3677 -2917 6855 -455 853 -1213 2215 -1233 2215
-4 0 -66 -102 -137 -227z"/>
<path d="M18900 28455 l0 -1325 11265 0 11265 0 0 1325 0 1325 -11265 0
-11265 0 0 -1325z"/>
<path d="M18900 24295 l0 -1325 11265 0 11265 0 0 1325 0 1325 -11265 0
-11265 0 0 -1325z"/>
<path d="M4640 20615 l0 -125 185 0 185 0 0 -3470 0 -3470 -185 0 -185 0 0
-120 0 -120 2438 0 c1647 0 2474 3 2548 11 581 56 1062 343 1187 709 l22 65 3
2898 c2 3213 8 2957 -64 3100 -129 258 -446 478 -829 577 -266 69 -63 64
-2817 67 l-2488 4 0 -126z m3110 -150 c400 -55 743 -213 961 -443 86 -91 145
-195 176 -312 17 -61 18 -218 18 -2690 0 -2514 -1 -2628 -18 -2690 -89 -314
-420 -582 -873 -705 -212 -58 -289 -66 -691 -72 l-373 -5 0 3464 c0 1906 3
3468 8 3473 13 13 666 -3 792 -20z"/>
<path d="M41530 20615 l0 -125 195 0 195 0 0 -850 0 -850 -485 0 -485 0 0
-245 0 -245 485 0 485 0 2 -2092 3 -2093 23 -70 c62 -185 188 -334 397 -468
188 -120 398 -196 671 -244 89 -15 217 -17 1232 -20 l1132 -4 0 246 0 245
-185 0 -185 0 0 -125 0 -126 -457 3 c-438 3 -460 4 -509 24 -74 30 -141 80
-172 126 l-27 42 -3 2278 -2 2278 770 0 770 0 0 245 0 245 -767 2 -768 3 0
845 0 845 198 3 197 2 0 125 0 125 -1355 0 -1355 0 0 -125z"/>
<path d="M12400 19875 l0 -615 970 0 970 0 0 615 0 615 -970 0 -970 0 0 -615z"/>
<path d="M12030 18670 l0 -120 133 0 c72 0 156 -3 185 -6 l52 -7 0 -2493 0
-2494 -185 0 -185 0 0 -120 0 -120 1345 0 1345 0 0 120 0 120 -190 0 -190 0 0
2494 0 2493 53 7 c28 3 114 6 190 6 l137 0 0 120 0 120 -1345 0 -1345 0 0
-120z"/>
<path d="M16900 18774 c-371 -49 -702 -201 -915 -419 -126 -128 -184 -245
-205 -407 -5 -45 -10 -257 -10 -470 l0 -388 960 0 959 0 3 633 3 633 27 41
c34 51 105 98 186 123 58 18 94 20 366 20 319 0 369 -5 457 -50 54 -28 119
-88 135 -125 10 -25 11 -175 4 -750 -5 -396 -9 -786 -10 -867 l0 -147 -977 -4
c-853 -3 -990 -6 -1072 -20 -358 -63 -627 -190 -827 -391 -98 -98 -157 -188
-196 -296 l-23 -65 -3 -844 c-3 -945 -6 -898 70 -1050 80 -159 279 -334 501
-440 185 -88 410 -148 641 -170 73 -7 785 -11 2153 -11 l2043 0 0 120 0 120
-196 0 -197 0 7 1548 c12 3042 12 2862 -3 2922 -94 376 -545 680 -1119 754
-108 14 -285 16 -1390 15 -1022 -1 -1287 -4 -1372 -15z m1643 -2421 l317 -6 0
-1399 0 -1398 -432 0 c-256 0 -451 5 -477 11 -114 26 -226 110 -249 187 -16
53 -17 2358 -1 2415 14 50 71 113 131 143 112 57 148 59 711 47z"/>
<path d="M23425 18779 c-354 -45 -669 -175 -896 -371 -117 -100 -213 -251
-244 -380 -22 -96 -22 -3864 0 -3953 28 -111 91 -220 184 -317 227 -239 591
-396 1015 -437 145 -14 2444 -15 2587 -1 541 53 997 303 1155 635 59 122 64
177 64 641 l0 414 -960 0 -960 0 0 -622 c0 -589 -1 -625 -19 -665 -24 -51
-101 -113 -178 -145 -55 -21 -73 -23 -356 -26 -191 -2 -316 1 -350 8 -108 22
-229 96 -263 161 -21 42 -21 4616 0 4657 31 59 105 109 210 141 63 19 92 21
371 21 273 0 309 -2 366 -20 80 -24 148 -67 185 -116 l29 -37 3 -639 2 -638
961 0 960 0 -3 453 c-4 506 -2 489 -81 642 -51 99 -192 246 -312 324 -158 103
-351 185 -545 230 -214 51 -232 51 -1588 50 -697 -1 -1298 -5 -1337 -10z"/>
<path d="M29596 18773 c-550 -74 -991 -365 -1103 -728 -17 -57 -18 -144 -18
-1985 0 -1584 2 -1935 14 -1980 95 -389 587 -700 1200 -760 141 -14 2439 -13
2586 0 235 22 456 81 640 171 153 74 250 142 361 254 89 88 107 113 147 196
25 51 50 118 56 147 8 37 11 630 11 1965 0 2097 3 1969 -60 2101 -121 255
-455 483 -850 580 -231 56 -230 56 -1608 55 -1053 -1 -1285 -4 -1376 -16z
m1817 -266 c94 -47 142 -98 157 -171 7 -35 9 -751 8 -2316 -3 -2109 -4 -2267
-20 -2296 -37 -67 -124 -124 -230 -149 -87 -20 -573 -21 -669 -1 -117 25 -227
95 -255 163 -12 27 -14 420 -14 2313 0 2456 -3 2316 48 2374 28 32 116 84 178
105 56 20 78 21 390 18 l330 -2 77 -38z"/>
<path d="M34640 18665 l0 -125 189 0 189 0 6 -1877 c3 -1033 8 -2156 10 -2495
l5 -618 -190 0 -189 0 0 -120 0 -120 1345 0 1345 0 0 120 0 120 -190 0 -190 0
0 2494 0 2494 153 7 c83 4 287 5 452 3 285 -3 303 -4 357 -26 67 -27 155 -102
174 -149 12 -27 14 -434 14 -2428 l0 -2395 -190 0 -190 0 0 -120 0 -120 1355
0 1355 0 0 120 0 120 -195 0 -195 0 -3 2223 c-3 2440 2 2244 -61 2382 -119
259 -443 486 -831 581 -230 56 -149 54 -2426 54 l-2099 0 0 -125z"/>
</g>
</svg>
